<svg xmlns="http://www.w3.org/2000/svg" width="50" height="50" viewBox="0 0 50 50"><path fill="#FFF" d="M33 29.2c1.2.4 2.5.1 3.4-.8 1.3-1.3 1.3-3.5 0-4.8s-3.5-1.3-4.8 0L14 5.8c1.3-1.4 1.3-3.5 0-4.8S10.5-.3 9.2 1c-.9.9-1.2 2.3-.8 3.4C7.3 4 6 4.3 5 5.2 3.7 6.5 3.7 8.7 5 10c1.2 1.2 3.1 1.3 4.4.3l17.8 17.9c-1 1.3-.9 3.2.3 4.4 1.3 1.3 3.5 1.3 4.8 0 .9-.9 1.1-2.2.7-3.4zM33.1 45.7c-1.3-1-3.2-.9-4.4.3-1.1 1.1-1.3 2.7-.6 4H38l12-12.1v-9.2l-16.9 17zM37.6 0h-9.8c.2.3.3.6.6.8.9.9 2.3 1.2 3.4.8-.4 1.2-.1 2.5.8 3.4 1.3 1.3 3.5 1.3 4.8 0s1.3-3.5 0-4.8l.2-.2zM10.3 27.6c-.9-.9-2.3-1.2-3.4-.8.3-1.1.1-2.5-.9-3.4-1.3-1.3-3.5-1.3-4.8 0C0 24.6-.1 26.5.9 27.8l-.9 1V38l5.5-5.5c1.3 1.3 3.5 1.3 4.8 0 1.3-1.4 1.3-3.6 0-4.9z"/></svg>