<?xml version="1.0" encoding="utf-8"?>
<!-- Generator: Adobe Illustrator 19.1.0, SVG Export Plug-In . SVG Version: 6.00 Build 0)  -->
<svg version="1.1" id="Layer_1" xmlns="http://www.w3.org/2000/svg" xmlns:xlink="http://www.w3.org/1999/xlink" x="0px" y="0px"
	 viewBox="0 0 170 170" style="enable-background:new 0 0 170 170;" xml:space="preserve">
<style type="text/css">
	.body{fill:#52595F;}
	.nose_and_eyes{fill:#2D3339;}
	.brows{fill:#DA8058;}
	.white{fill:#FBFEFF;}
</style>
<g>
	<path class="body" d="M10.5,84.2c8.2-19.5,26.1-33.9,47.6-37.6C54.2,40.3,24.5-6.8,8.9,0.8C-7.7,9,4,56.9,4,56.9S2.8,71.5,10.5,84.2
		z"/>
	<path class="body" d="M165.3,31.5c-15.4-11.2-56.4,20.2-62.8,25.2c17,11.6,28,31.3,27.3,53.3c0,1.1-0.1,2.2-0.2,3.3
		c12.8-8.1,18.9-27.9,18.9-27.9S182,43.6,165.3,31.5z"/>
	<path class="body" d="M130.8,109.1c-1,34.6-30,61.8-64.9,60.9S3.5,140.2,4.5,105.7s30-61.8,64.9-60.9S131.8,74.5,130.8,109.1z"/>
	<path class="white" d="M78.8,94.5l2.6-31.4c0.6-2.3-0.8-4.6-3.1-5.1c-2.3-0.6-4.6,0.8-5.2,3.1L62.6,91.4C44,92.1,29,107.3,29,125.9
		c-0.1,19.2,15.6,34.8,34.9,34.9s35.2-15.4,35.2-34.6C99.2,112.2,90.8,100.1,78.8,94.5z"/>
	<g>
		<path class="nose_and_eyes" d="M66.5,111.6c-7.1-1.1-14.3,1.2-15.5,8.3c-1.1,7,4.6,13.8,11.8,15s14.7-3.5,15.8-10.6
			C79.7,117.3,73.6,112.8,66.5,111.6z"/>
		<path class="nose_and_eyes" d="M39.6,76c-4.1-0.8-8,1.9-8.8,5.9c-0.8,4,1.9,7.9,5.9,8.7c4.1,0.8,8-1.9,8.8-5.9C46.4,80.7,43.7,76.8,39.6,76z
			"/>
		<path class="nose_and_eyes" d="M104.4,88.4c-4.1-0.8-8,1.9-8.8,5.9c-0.8,4,1.9,7.9,5.9,8.7c4.1,0.8,8-1.9,8.8-5.9
			C111.2,93,108.5,89.1,104.4,88.4z"/>
	</g>
	<g>
		<path class="brows" d="M106.9,74.7c-5.4-0.8-10.1,0.4-10.5,2.8c-0.4,2.4,3.7,5,9.1,5.8c5.4,0.8,10.1-0.4,10.5-2.8
			C116.4,78.1,112.3,75.5,106.9,74.7z"/>
		<path class="brows" d="M42.1,62.3c-5.4-0.8-10.1,0.4-10.5,2.8c-0.4,2.4,3.7,5,9.1,5.8c5.4,0.8,10.1-0.4,10.5-2.8
			C51.6,65.8,47.5,63.2,42.1,62.3z"/>
	</g>
</g>
</svg>
