<?xml version="1.0" encoding="utf-8"?>
<!-- Generator: Adobe Illustrator 19.1.0, SVG Export Plug-In . SVG Version: 6.00 Build 0)  -->
<svg version="1.1" id="Layer_1" xmlns="http://www.w3.org/2000/svg" xmlns:xlink="http://www.w3.org/1999/xlink" x="0px" y="0px" width="24px" height="24px" 
	 viewBox="0 0 24 24" style="enable-background:new 0 0 24 24;" xml:space="preserve">
<style type="text/css">
	.st0{fill:#39ADD1;}
</style>
<path class="st0" d="M19.5,7.1C19.3,3.2,16,0,12.1,0c0,0,0,0,0,0c0,0,0,0,0,0c-2,0-3.9,0.8-5.3,2.2c-1.3,1.3-2.1,3-2.3,4.9
	c0,0.1,0,0.9,0,0.9c0.3,9.3,6.2,15,6.9,15.7c0.2,0.2,0.4,0.3,0.7,0.3c0.2,0,0.5-0.1,0.7-0.3c0.7-0.6,6.5-6.4,6.8-15.6
	C19.5,7.9,19.5,7.2,19.5,7.1z M9,7.5c0-1.7,1.3-3,3-3c1.7,0,3,1.3,3,3c0,1.7-1.3,3-3,3C10.3,10.5,9,9.2,9,7.5z"/>
</svg>
